<svg id="Ebene_1" data-name="Ebene 1" xmlns="http://www.w3.org/2000/svg" width="1263.1" height="299.09"
     viewBox="0 0 1263.1 299.09">
    <title>logo_white_stroke</title>
    <path id="signet"
          d="M15.06,132.13C-4.9,326.06,62.33,213.91,134,92.59,218.67-50.73,279.32-6.24,291.77,250.73,300.73,435.32,41.23-122,15.06,132.13Z"
          transform="translate(-0.5 -0.88)" fill="none" stroke="#000" stroke-miterlimit="10" stroke-width="22"></path>
    <g id="novatec">
        <polygon
                points="502 220.81 473.5 220.81 417.8 129.22 417.8 220.81 389.4 220.81 389.4 81.61 417.8 81.61 473.5 173.41 473.5 81.61 502 81.61 502 220.81"
                fill="#000"></polygon>
        <polygon
                points="722.8 186.41 754.4 81.61 786.2 81.61 738 220.81 708.2 220.81 660.2 81.61 691.7 81.61 722.8 186.41"
                fill="#000"></polygon>
        <polygon
                points="843.8 116.02 812.5 220.81 780.7 220.81 828.9 81.61 858.7 81.61 906.7 220.81 875.1 220.81 843.8 116.02"
                fill="#000"></polygon>
        <polygon
                points="1012.9 104.92 970.7 104.92 970.7 220.81 942 220.81 942 104.92 900.3 104.92 900.3 81.61 1012.9 81.61 1012.9 104.92"
                fill="#000"></polygon>
        <polygon
                points="1117.5 160.51 1062.7 160.51 1062.7 197.81 1127.1 197.81 1127.1 220.81 1034.2 220.81 1034.2 81.61 1126.9 81.61 1126.9 104.92 1062.7 104.92 1062.7 137.91 1117.5 137.91 1117.5 160.51"
                fill="#000"></polygon>
        <path d="M620.4,148.9c0-14.7-2.6-25.6-7.9-33.3s-12.7-11.4-22.3-11.4-16.9,3.7-22.1,11.2-7.9,18.4-7.9,32.9v6.8c0,14.2,2.6,25.2,7.9,33.1S580.8,200,590.4,200s16.9-3.7,22.1-11.4c5-7.4,7.7-18.6,7.9-33.1Zm28.9,6.4c0,13.8-2.4,25.6-7.2,36.2a54.8,54.8,0,0,1-20.6,23.9c-9,5.7-19.3,8.3-30.9,8.3a57.89,57.89,0,0,1-30.7-8.3,53.59,53.59,0,0,1-20.8-23.7c-5-10.3-7.4-22.1-7.4-35.5v-6.8c0-13.8,2.4-25.9,7.4-36.2a54.65,54.65,0,0,1,20.8-24.1,60.93,60.93,0,0,1,61.4,0c9,5.5,16,13.6,20.8,24.1s7.4,22.3,7.4,36.2v5.9Z"
              transform="translate(-0.5 -0.88)" fill="#000"></path>
        <path d="M1263.2,175.4c-1.1,14.9-6.6,26.7-16.4,35.3s-23,12.9-39.2,12.9c-17.7,0-31.8-5.9-41.9-18s-15.3-28.5-15.3-49.5v-8.5c0-13.4,2.4-25.2,7-35.3a51.09,51.09,0,0,1,20.2-23.4c8.8-5.5,18.8-8.1,30.5-8.1,16,0,28.9,4.4,38.6,12.9,9.9,8.5,15.3,20.6,16.9,36.2H1235c-.7-9-3.3-15.6-7.4-19.5-4.4-3.9-10.7-6.1-19.5-6.1-9.4,0-16.7,3.5-21.3,10.3-4.8,6.8-7.2,17.5-7.2,32V157c0,15.1,2.2,26.1,6.8,33.1s11.6,10.5,21.5,10.5c8.8,0,15.3-2,19.7-6.1,4.4-3.9,6.8-10.3,7.4-18.8h28.3v-.3Z"
              transform="translate(-0.5 -0.88)" fill="#000"></path>
    </g>
</svg>